<svg xmlns="http://www.w3.org/2000/svg" width="80" height="80"><defs><linearGradient id="a" x1="50%" x2="50%" y1="0%" y2="38.855%"><stop offset="2.504%" stop-color="#FF6B89"/><stop offset="100%" stop-color="#D10651"/></linearGradient></defs><path fill="url(#a)" fill-rule="evenodd" d="M38.145 0l-3.33 4.384-4.44-3.256-2.404 4.953-4.992-2.322-1.392 5.327-5.348-1.308-.332 5.495-5.5-.244.744 5.455-5.442.834 1.798 5.204-5.173 1.886 2.785 4.75-4.705 2.86 3.65 4.122L0 41.855l4.384 3.33-3.256 4.441L6.08 52.03l-2.323 4.991 5.327 1.391-1.307 5.35 5.495.33-.245 5.501 5.457-.745.832 5.444 5.204-1.798 1.887 5.172 4.75-2.784 2.859 4.705 4.122-3.65L41.854 80l3.33-4.384 4.44 3.256 2.405-4.953 4.992 2.323 1.392-5.327 5.347 1.307.332-5.494 5.5.244-.744-5.456 5.443-.832-1.799-5.205 5.174-1.886-2.785-4.75 4.704-2.86-3.65-4.12L80 38.144l-4.384-3.33 3.255-4.44-4.953-2.404 2.323-4.991-5.327-1.392 1.308-5.348-5.495-.332.244-5.501-5.455.745-.834-5.443-5.205 1.797-1.885-5.172-4.75 2.785-2.86-4.704-4.12 3.649z"/></svg>