<svg xmlns="http://www.w3.org/2000/svg" viewBox="0 0 32 32"><path d="M28.9.1H3.1C1.4.1 0 1.4 0 3.1v25.8C0 30.6 1.4 32 3.1 32h25.8c1.7 0 3.1-1.4 3.1-3.1V3.1c0-1.7-1.4-3-3.1-3zM16 9.9c3.4 0 6.2 2.8 6.2 6.2s-2.8 6.2-6.2 6.2-6.2-2.8-6.2-6.2 2.8-6.2 6.2-6.2zm12.3 17.2c0 .7-.6 1.2-1.2 1.2H4.9c-.7 0-1.2-.6-1.2-1.2V13.6h2.8c-.2.8-.3 1.6-.3 2.5 0 5.4 4.4 9.8 9.8 9.8s9.8-4.4 9.8-9.8c0-.9-.1-1.7-.3-2.5h2.8v13.5zm0-18.4c0 .7-.6 1.2-1.2 1.2h-3.7c-.7 0-1.2-.6-1.2-1.2V5c0-.7.6-1.2 1.2-1.2h3.7c.7 0 1.2.6 1.2 1.2v3.7z"/></svg>