<svg xmlns="http://www.w3.org/2000/svg" viewBox="0 0 1792 1792"><path d="M1513.7 1361.6c-3.3 17.7-10.8 40.2-22.7 67.5-11.8 27.3-22.9 48.5-33.1 63.5-19.8 30.2-66.3 57.5-139.3 82-67.8 22-131.9 27.4-192.2 16.2-17.7-3.3-34.7-7.6-51-13s-34.4-13-54.3-22.8-34.6-17.4-44.1-22.9-26.4-15.6-50.8-30.3c-24.4-14.7-39.4-23.6-44.9-26.6-60-34.9-112.3-72.7-156.9-113.5-74.3-67.4-147.9-154.1-220.7-260.1s-127.4-206-163.6-299.5c-22.1-56.3-38.7-118.7-49.7-187.2-.9-6.3-3.8-23.4-8.8-51.5-5-28-8.3-47.5-10-58.3-1.7-10.8-3.6-27.3-5.6-49.3s-2.6-41.7-1.8-58.8 2.9-34.6 6.1-52.3c11.2-60.3 39.2-118.2 84.1-173.6 49-59.4 91.2-92.9 126.5-100.6 17.7-4.2 41.5-6.9 71.2-8.2s53.4-.3 71.1 3c9.2 1.7 15.9 4 20.1 6.8 11.1 6.1 23.8 34.3 38.2 84.4 4.9 13.8 11.4 33.3 19.6 58.6s15.8 48.2 22.8 68.8c7 20.6 13.9 40 20.7 58.3 1.5 3 5.7 12.2 12.6 27.8 7 15.5 11.8 28.5 14.7 38.8 2.8 10.4 3.4 20.1 1.7 29.3-2.4 13.1-14.8 27.8-37.1 44s-46 30.5-71 42.8c-25 12.3-48.5 25.9-70.6 40.8-22.1 14.9-34.2 28.2-36.4 40-1.1 5.9-.8 13.6.8 23 1.6 9.5 3.2 16.7 4.6 21.7s4.6 13.7 9.4 26.2c4.8 12.4 7.4 19.3 7.8 20.8 33.2 99 75.9 186.6 128.2 262.8s118.8 147.5 199.3 214c1.2.9 6.7 5.8 16.6 14.8 9.9 9 16.9 15 21 18.1 4.2 3.1 10.4 7.2 18.6 12.1 8.2 4.9 15.3 7.9 21.2 9 11.8 2.2 28.6-4.4 50.4-19.6s43-32.4 63.4-51.3 42.3-35.9 65.4-50.9 41.3-21.3 54.4-18.9c9.2 1.7 18.1 5.7 26.7 12.1s19 15.6 31 27.6 19.1 19.3 21.4 21.8c14.6 12.9 30.2 26.3 46.9 40.2 16.7 14 35.4 29.3 56 46s36.5 29.8 47.6 39.3c41.6 31.5 63.3 53.4 65.1 66 1.4 4.8 1.2 11.9-.6 21.1z"/></svg>