<svg xmlns="http://www.w3.org/2000/svg"><symbol id="icon_facebook" viewBox="0 0 56.7 56.7"><path d="M41.5 18.4h-9v-5.9c0-2.2 1.5-2.7 2.5-2.7h6.3V0h-8.7c-9.7 0-11.9 7.2-11.9 11.9v6.5h-5.6v10h5.6v28.3h11.8V28.4h7.9l1.1-10z"/></symbol><symbol id="icon_header_phone" viewBox="0 0 1792 1792"><path d="M1513.7 1361.6c-3.3 17.7-10.8 40.2-22.7 67.5-11.8 27.3-22.9 48.5-33.1 63.5-19.8 30.2-66.3 57.5-139.3 82-67.8 22-131.9 27.4-192.2 16.2-17.7-3.3-34.7-7.6-51-13s-34.4-13-54.3-22.8-34.6-17.4-44.1-22.9-26.4-15.6-50.8-30.3c-24.4-14.7-39.4-23.6-44.9-26.6-60-34.9-112.3-72.7-156.9-113.5-74.3-67.4-147.9-154.1-220.7-260.1s-127.4-206-163.6-299.5c-22.1-56.3-38.7-118.7-49.7-187.2-.9-6.3-3.8-23.4-8.8-51.5-5-28-8.3-47.5-10-58.3-1.7-10.8-3.6-27.3-5.6-49.3s-2.6-41.7-1.8-58.8 2.9-34.6 6.1-52.3c11.2-60.3 39.2-118.2 84.1-173.6 49-59.4 91.2-92.9 126.5-100.6 17.7-4.2 41.5-6.9 71.2-8.2s53.4-.3 71.1 3c9.2 1.7 15.9 4 20.1 6.8 11.1 6.1 23.8 34.3 38.2 84.4 4.9 13.8 11.4 33.3 19.6 58.6s15.8 48.2 22.8 68.8c7 20.6 13.9 40 20.7 58.3 1.5 3 5.7 12.2 12.6 27.8 7 15.5 11.8 28.5 14.7 38.8 2.8 10.4 3.4 20.1 1.7 29.3-2.4 13.1-14.8 27.8-37.1 44s-46 30.5-71 42.8c-25 12.3-48.5 25.9-70.6 40.8-22.1 14.9-34.2 28.2-36.4 40-1.1 5.9-.8 13.6.8 23 1.6 9.5 3.2 16.7 4.6 21.7s4.6 13.7 9.4 26.2c4.8 12.4 7.4 19.3 7.8 20.8 33.2 99 75.9 186.6 128.2 262.8s118.8 147.5 199.3 214c1.2.9 6.7 5.8 16.6 14.8 9.9 9 16.9 15 21 18.1 4.2 3.1 10.4 7.2 18.6 12.1 8.2 4.9 15.3 7.9 21.2 9 11.8 2.2 28.6-4.4 50.4-19.6s43-32.4 63.4-51.3 42.3-35.9 65.4-50.9 41.3-21.3 54.4-18.9c9.2 1.7 18.1 5.7 26.7 12.1s19 15.6 31 27.6 19.1 19.3 21.4 21.8c14.6 12.9 30.2 26.3 46.9 40.2 16.7 14 35.4 29.3 56 46s36.5 29.8 47.6 39.3c41.6 31.5 63.3 53.4 65.1 66 1.4 4.8 1.2 11.9-.6 21.1z"/></symbol><symbol id="icon_instagram" viewBox="0 0 32 32"><path d="M28.9.1H3.1C1.4.1 0 1.4 0 3.1v25.8C0 30.6 1.4 32 3.1 32h25.8c1.7 0 3.1-1.4 3.1-3.1V3.1c0-1.7-1.4-3-3.1-3zM16 9.9c3.4 0 6.2 2.8 6.2 6.2s-2.8 6.2-6.2 6.2-6.2-2.8-6.2-6.2 2.8-6.2 6.2-6.2zm12.3 17.2c0 .7-.6 1.2-1.2 1.2H4.9c-.7 0-1.2-.6-1.2-1.2V13.6h2.8c-.2.8-.3 1.6-.3 2.5 0 5.4 4.4 9.8 9.8 9.8s9.8-4.4 9.8-9.8c0-.9-.1-1.7-.3-2.5h2.8v13.5zm0-18.4c0 .7-.6 1.2-1.2 1.2h-3.7c-.7 0-1.2-.6-1.2-1.2V5c0-.7.6-1.2 1.2-1.2h3.7c.7 0 1.2.6 1.2 1.2v3.7z"/></symbol><symbol id="icon_vkontakte" viewBox="0 0 512 512"><path d="M440.6 295.4c17 16.6 34.9 32.2 50.1 50.4 6.7 8.1 13.1 16.5 18 25.9 6.9 13.4.7 28.1-11.3 28.9h-74.6c-19.2 1.6-34.6-6.1-47.5-19.3-10.3-10.5-19.9-21.7-29.8-32.6-4.1-4.4-8.3-8.6-13.4-11.9-10.2-6.6-19-4.6-24.8 6-5.9 10.8-7.3 22.8-7.9 34.8-.8 17.6-6.1 22.2-23.8 23-37.7 1.8-73.5-3.9-106.7-22.9-29.3-16.8-52-40.4-71.8-67.2C58.6 258.3 29.1 201 2.6 142c-6-13.3-1.6-20.4 13.1-20.7 24.3-.5 48.7-.4 73 0 9.9.1 16.4 5.8 20.3 15.2 13.2 32.4 29.3 63.2 49.5 91.7 5.4 7.6 10.9 15.2 18.7 20.5 8.6 5.9 15.2 4 19.3-5.7 2.6-6.1 3.7-12.7 4.3-19.2 1.9-22.5 2.2-45-1.2-67.4-2.1-14-10-23.1-23.9-25.7-7.1-1.4-6.1-4-2.6-8.1 6-7 11.6-11.4 22.9-11.4h84.3c13.3 2.6 16.2 8.6 18 21.9l.1 93.6c-.1 5.2 2.6 20.5 11.9 23.9 7.5 2.4 12.4-3.5 16.8-8.3 20.2-21.4 34.6-46.7 47.5-73 5.7-11.5 10.6-23.5 15.4-35.5 3.5-8.9 9.1-13.2 19.1-13l80.9.2c2.4 0 4.8 0 7.2.4 13.7 2.3 17.4 8.2 13.2 21.6-6.7 20.9-19.6 38.4-32.3 55.9-13.5 18.7-28 36.8-41.4 55.6-12.3 17.3-11.4 25.9 3.9 40.9z"/></symbol></svg>