<svg xmlns="http://www.w3.org/2000/svg" xmlns:xlink="http://www.w3.org/1999/xlink"><symbol id="inline-avatar-mobile" viewBox="0 0 512 512"><path d="M437.02 330.98c-27.883-27.882-61.071-48.523-97.281-61.018C378.521 243.251 404 198.548 404 148 404 66.393 337.607 0 256 0S108 66.393 108 148c0 50.548 25.479 95.251 64.262 121.962-36.21 12.495-69.398 33.136-97.281 61.018C26.629 379.333 0 443.62 0 512h40c0-119.103 96.897-216 216-216s216 96.897 216 216h40c0-68.38-26.629-132.667-74.98-181.02zM256 256c-59.551 0-108-48.448-108-108S196.449 40 256 40s108 48.448 108 108-48.449 108-108 108z"/></symbol><symbol id="inline-bag" viewBox="0 0 14 11"><path d="M10 1H4V0h6zM0 11h14V5H0zm14-7H0V2h14z" fill-rule="evenodd"/></symbol><symbol id="inline-burger" viewBox="0 0 12 10"><path d="M0 0h12v2H0zm0 4h12v2H0zm0 4h12v2H0z" fill-rule="evenodd"/></symbol><symbol id="inline-cart" viewBox="0 0 16 16"><g fill-rule="evenodd"><path fill-rule="nonzero" d="M5 5v5h7.396l1.11-5H5zM3 3h13l-2 9H3V3z"/><path d="M3 1h2v3H3z"/><path d="M0 0h5v2H0z"/><circle cx="4.5" cy="14.5" r="1.5"/><circle cx="11.5" cy="14.5" r="1.5"/></g></symbol><symbol id="inline-empty-star" viewBox="0 0 33 33"><path fill-rule="evenodd" d="M26.116 32.18l-1.059-11 7.028-8.27-10.305-2.347-5.28-9.531-5.28 9.53L.915 12.91l7.028 8.27-1.06 11 9.617-4.455 9.616 4.456z"/></symbol><symbol id="inline-file" viewBox="0 0 350.3 450.3"><path d="M199.7 0c-.9 0-1.9.1-2.8.3H20c-11 0-20 9-20 20v410c0 11 9 20 20 20h310c11 0 20-9 20-20V153.5c1.2-7.3-1.7-14.6-7.5-19.1L215.8 7.7C211.9 2.8 206-.1 199.7 0zM40 40.3h140v106.8c-1.1 6.4 1.1 13 5.8 17.5l.2.2.3.3c4.5 4.4 10.9 6.3 17.1 5.3H310v240H40V40.3zm180 28.3l61.7 61.7H220V68.6z"/></symbol><symbol id="inline-files" viewBox="0 0 399.8 512"><path d="M60.9 0v60.9H0V512h338.9v-60.9h60.9c0-150.4-.4-300.8-.4-451.1H60.9zm254.4 488.4H23.6V84.5h188.2V187l103.4.9.1 300.5zm-79.8-387.2l63.1 63.1c-11.1 0-62.2-.9-62.2-.9s-.9-50.9-.9-62.2zm103.4 326.3V176.1s-90.2-96.8-110-114.6l-144.4-.6V20.5s240.4 3.1 291.7 3.1v403.8l-37.3.1z"/></symbol><symbol id="inline-flag" viewBox="0 0 11 14"><path fill-rule="evenodd" d="M1.248 0C.559 0 0 .544 0 1.188v12.017c0 .55.324.795.655.795.197 0 .392-.084.586-.243l3.771-3.085a.733.733 0 01.46-.151c.174 0 .342.055.459.15l3.784 3.086c.193.159.403.243.6.243a.64.64 0 00.522-.261.895.895 0 00.163-.534V1.188C11 .544 10.395 0 9.706 0H1.248zm1.417 2h5.64c.458 0 .862.311.862.68v6.866a.463.463 0 01-.11.305.454.454 0 01-.347.149.705.705 0 01-.4-.139L5.787 8.098a.545.545 0 00-.306-.086.544.544 0 00-.306.086L2.66 9.861a.678.678 0 01-.39.139c-.221 0-.437-.14-.437-.454V2.679c0-.368.373-.679.832-.679z"/></symbol><symbol id="inline-home" viewBox="0 0 14 12"><path d="M8 12V9H6v3H2V6h10v6H8zM7 0l7 5H0z" fill-rule="evenodd"/></symbol><symbol id="inline-hours" viewBox="0 0 20 20"><g fill-rule="evenodd"><path fill-rule="nonzero" d="M10 18a8 8 0 100-16 8 8 0 000 16zm0 2C4.477 20 0 15.523 0 10S4.477 0 10 0s10 4.477 10 10-4.477 10-10 10z"/><path stroke="#2B2C30" d="M9.5 4.5h1v5h-1zm0 5h4v1h-4z"/></g></symbol><symbol id="inline-login" viewBox="0 0 22 28"><path d="M22 1v26c0 .6-.4 1-1 1H1c-.6 0-1-.4-1-1v-2h2v1h18V2H2v3H0V1c0-.6.4-1 1-1h20c.6 0 1 .4 1 1zM7.3 18.3l1.4 1.4 5-5c.4-.4.4-1 0-1.4l-5-5-1.4 1.4 3.3 3.3H0v2h10.6l-3.3 3.3z"/></symbol><symbol id="inline-mail" viewBox="0 0 14 10"><g fill-rule="evenodd"><path d="M0 10h14V3L7 5 0 3z"/><path d="M14 2L7 4 0 2V0h14z"/></g></symbol><symbol id="inline-q-mark" viewBox="0 0 8 11"><path fill-rule="evenodd" d="M2.908 7.307L2.53 4.794l.082-.077c1.916-.073 2.875-.554 2.875-1.443 0-.352-.132-.624-.395-.815-.262-.191-.635-.287-1.117-.287-.887 0-1.708.357-2.464 1.07L0 1.677C1.073.559 2.415 0 4.025 0c1.204 0 2.168.284 2.89.853C7.64 1.423 8 2.22 8 3.243 8 4.908 6.921 5.947 4.764 6.36l-.18.946H2.907zM2.366 11V8.518h2.66V11h-2.66z"/></symbol><symbol id="inline-reseller" viewBox="0 0 13 13"><g fill-rule="evenodd"><path d="M11.927 10.07V8.935a.747.747 0 00-.741-.753H6.904V7h-.84v1.181h-4.26a.747.747 0 00-.74.753v1.14A1.488 1.488 0 000 11.508 1.48 1.48 0 001.468 13a1.48 1.48 0 001.469-1.492c0-.668-.435-1.235-1.03-1.424V9.038h4.16v1.046a1.49 1.49 0 00-1.037 1.424A1.48 1.48 0 006.498 13a1.48 1.48 0 001.469-1.492c0-.678-.449-1.252-1.06-1.43v-1.04h4.176v1.046a1.49 1.49 0 00-1.02 1.421 1.48 1.48 0 001.469 1.492A1.48 1.48 0 0013 11.505c0-.685-.455-1.259-1.073-1.434z"/><path d="M9.75 5.536a11.395 11.395 0 00-2.053-1.267.06.06 0 01-.035-.056V3.56a1.48 1.48 0 00.198-.524c.077-.005.176-.108.286-.475.137-.47.01-.566-.118-.566.013-.039.023-.08.031-.12C8.283.576 7.619.53 7.619.53a1 1 0 00-.4-.358 1.402 1.402 0 00-.823-.166 1.217 1.217 0 00-.329.061 1.41 1.41 0 00-.362.179c-.132.08-.26.181-.372.294a1.44 1.44 0 00-.402.676c-.056.208-.043.426.002.66a.96.96 0 00.031.12c-.125.003-.247.101-.112.567.107.367.209.47.285.475.028.166.094.35.199.524v.654a.056.056 0 01-.033.053 11.36 11.36 0 00-2.046 1.262.66.66 0 00-.257.521v.608c0 .188.158.34.354.34h6.292A.347.347 0 0010 6.66v-.608a.667.667 0 00-.25-.516z"/></g></symbol><symbol id="inline-search-glass" viewBox="0 0 511.999 511.999"><path d="M225.773.616C101.283.616 0 101.622 0 225.773S101.284 450.93 225.773 450.93s225.774-101.006 225.774-225.157S350.263.616 225.773.616zm0 413.301c-104.084 0-188.761-84.406-188.761-188.145 0-103.745 84.677-188.145 188.761-188.145s188.761 84.4 188.761 188.145c.001 103.739-84.676 188.145-188.761 188.145z"/><path d="M506.547 479.756L385.024 358.85c-7.248-7.205-18.963-7.174-26.174.068-7.205 7.248-7.174 18.962.068 26.174l121.523 120.906a18.457 18.457 0 0013.053 5.385 18.45 18.45 0 0013.121-5.453c7.205-7.249 7.174-18.963-.068-26.174z"/></symbol><symbol id="inline-squares" viewBox="0 0 10 12"><path d="M0 0h4v5H0zm6 0h4v5H6zM0 7h4v5H0zm6 0h4v5H6z" fill-rule="evenodd"/></symbol><symbol id="inline-star" viewBox="0 0 10.2 9.7"><path d="M5.1 8L2 9.7l.6-3.5L0 3.7l3.5-.5L5.1 0l1.6 3.2 3.5.5-2.5 2.5.6 3.5L5.1 8z" fill-rule="evenodd" clip-rule="evenodd"/></symbol></svg>