<svg xmlns="http://www.w3.org/2000/svg" width="90" height="90"><defs><linearGradient id="a" x1="100%" x2="0%" y1="50%" y2="50%"><stop offset="0%" stop-color="#FFD816"/><stop offset="100%" stop-color="#FFAF09"/></linearGradient></defs><g fill="none" fill-rule="evenodd"><path fill="#EFA200" d="M80.148 81.333c-13.785 11.228-56.827 11.228-70.33 0-13.785-11.228-12.378-59.228 0-71.86 12.378-12.63 57.952-12.63 70.33 0 12.378 12.632 13.784 60.632 0 71.86"/><path fill="#FFFFFE" d="M.827 34.389c1.248-9.822 3.968-18.625 8.034-23.597C4.838 15.719 2.104 24.538.827 34.389m8.991-24.67C16.063 3.315 30.547.112 45.02.112c8.998 0 17.99 1.238 25 3.713l.023.094C63.025 1.47 54.004.246 44.983.246c-14.488 0-28.976 3.158-35.165 9.473"/><path fill="url(#a)" d="M6.16 77.088c-5.655-9.627-7.278-27.4-5.333-42.7 1.277-9.85 4.01-18.669 8.034-23.596.311-.38.63-.738.957-1.073C16.008 3.404 30.495.246 44.983.246c9.021 0 18.042 1.224 25.06 3.673 4.446 18.512-4.84 42.038-24.779 58.01-12.378 9.825-26.162 14.878-39.103 15.159"/><path fill="#323232" fill-opacity=".318" d="M63.913 62.245l-8.356-4.178a3.189 3.189 0 01-1.76-2.853v-3.276c.23-.27.504-.612.79-1.017a19.357 19.357 0 002.597-5.237 2.618 2.618 0 001.858-2.495v-3.498a2.61 2.61 0 00-.87-1.94V32.69s1.037-7.872-9.624-7.872c-10.662 0-9.625 7.872-9.625 7.872v5.062a2.6 2.6 0 00-.876 1.94v3.498a2.62 2.62 0 001.21 2.2c.875 3.81 3.165 6.549 3.165 6.549v3.195a3.182 3.182 0 01-1.662 2.797l-7.804 4.26a7.014 7.014 0 00-3.657 6.16v2.83H67.79v-2.66a7.01 7.01 0 00-3.877-6.275z"/><path fill="#FFF" d="M61.185 59.518L52.83 55.34a3.189 3.189 0 01-1.76-2.854V49.21c.23-.269.503-.611.79-1.017a19.357 19.357 0 002.597-5.237 2.618 2.618 0 001.858-2.494v-3.498a2.61 2.61 0 00-.87-1.94v-5.062s1.037-7.872-9.625-7.872c-10.662 0-9.624 7.872-9.624 7.872v5.062a2.6 2.6 0 00-.876 1.94v3.498a2.62 2.62 0 001.21 2.2c.874 3.81 3.164 6.548 3.164 6.548v3.196a3.182 3.182 0 01-1.66 2.797l-7.805 4.26a7.014 7.014 0 00-3.657 6.159v2.831h38.491v-2.66a7.01 7.01 0 00-3.878-6.275z"/></g></svg>