<svg xmlns="http://www.w3.org/2000/svg" width="33" height="33"><g fill="none" fill-rule="evenodd"><circle cx="16.5" cy="16.5" r="16.5" fill="#CEDADF"/><path fill="#88A6B0" fill-rule="nonzero" d="M16.58 15.656c-2.081 0-3.769-1.896-3.769-4.235 0-2.34.555-4.236 3.77-4.236s3.769 1.897 3.769 4.236c0 2.339-1.688 4.235-3.77 4.235zm6.993 6.992c.004.259.006.304.008.28v.315s-1.031 1.942-7 1.942c-5.97 0-7-1.942-7-1.942v-.425c0 .037.004.02.01-.302.08-3.942.68-5.079 4.96-5.801 0 0 .61.726 2.03.726s2.03-.726 2.03-.726c4.328.73 4.893 1.884 4.962 5.933z"/></g></svg>