<svg xmlns="http://www.w3.org/2000/svg" width="90" height="90"><defs><linearGradient id="a" x1="0%" y1="0%" y2="100%"><stop offset="0%" stop-color="#FFB23B"/><stop offset="100%" stop-color="#F76B1C"/></linearGradient></defs><g fill="none" fill-rule="evenodd"><path fill="#DC751A" d="M80.148 81.333c-13.785 11.228-56.827 11.228-70.33 0-13.785-11.228-12.378-59.228 0-71.86 12.378-12.63 57.952-12.63 70.33 0 12.378 12.632 13.784 60.632 0 71.86"/><path fill="#FFFFFE" d="M.827 34.389c1.248-9.822 3.968-18.625 8.034-23.597C4.838 15.719 2.104 24.538.827 34.389m8.991-24.67C16.063 3.315 30.547.112 45.02.112c8.998 0 17.99 1.238 25 3.713l.023.094C63.025 1.47 54.004.246 44.983.246c-14.488 0-28.976 3.158-35.165 9.473"/><path fill="url(#a)" d="M6.16 77.088c-5.655-9.627-7.278-27.4-5.333-42.7 1.277-9.85 4.01-18.669 8.034-23.596.311-.38.63-.738.957-1.073C16.008 3.404 30.495.246 44.983.246c9.021 0 18.042 1.224 25.06 3.673 4.446 18.512-4.84 42.038-24.779 58.01-12.378 9.825-26.162 14.878-39.103 15.159"/><path fill="#323232" fill-opacity=".318" d="M44.188 29.514l1.14-1.33H32.851L20.455 42.489h12.582l11.151-12.975zM36.023 42.49H59.59l-6.404-7.46-5.38-6.252-8.119 9.45-3.664 4.262zm-15.417 2.266l23.43 24.67-11.204-24.67H20.606zm39.691 0H35.315L47.735 72.1l.076.172 11.836-26.079.65-1.438zM51.61 69.388l23.392-24.633H62.785L51.609 69.388zm23.544-26.9l-12.4-14.304H50.28l12.296 14.305h12.577z"/><path fill="#FFF" d="M41.5 26.787l1.141-1.33H30.143L17.727 39.761H30.33L41.5 26.787zm-8.18 12.975h23.606l-6.414-7.46-5.389-6.252-8.132 9.45-3.67 4.262zm-15.44 2.265l23.467 24.671-11.222-24.67H17.88zm39.755 0H32.612l12.44 27.346.076.171 11.855-26.078.652-1.439zm-8.702 24.634l23.43-24.634H60.127L48.933 66.661zm23.582-26.9L60.094 25.457H47.6l12.316 14.306h12.598z"/></g></svg>