<svg xmlns="http://www.w3.org/2000/svg" viewBox="0 0 512 512"><path d="M301.019 81.779v284.309h-60.61v45.049h131.244l89.891 64.134v-64.134H512V81.779H301.019zm60.073 84.625h30.025v30.001h-30.025v-30.001zm60.05 160.109h-90.074v-30.001h30.037v-40.058h-30.037v-30.001h60.037v70.059h30.037v30.001z"/><path d="M0 36.73v299.357h50.457v50.005l70.088-50.005h150.474V36.73H0zm150.522 239.74h-30.025v-30h30.025v30zm-.012-78.986v18.949h-30.001v-46.73h15c11.953 0 21.679-9.725 21.679-21.678 0-11.953-9.725-21.678-21.679-21.678-11.953 0-21.677 9.725-21.677 21.678H83.831c0-28.496 23.182-51.679 51.678-51.679s51.679 23.184 51.679 51.679c0 23.281-15.475 43.015-36.678 49.459z"/></svg>