<svg xmlns="http://www.w3.org/2000/svg" width="90" height="90"><defs><linearGradient id="a" x1="0%" x2="102%" y1="0%" y2="101%"><stop offset="0%" stop-color="#16D25B"/><stop offset="100%" stop-color="#24C31F"/></linearGradient></defs><g fill="none" fill-rule="evenodd"><path fill="#55B942" d="M80.148 81.579c-13.785 11.228-56.827 11.228-70.33 0-13.785-11.228-12.378-59.228 0-71.86 12.378-12.631 57.952-12.631 70.33 0 12.378 12.632 13.784 60.632 0 71.86"/><path fill="#FFFFFE" d="M.827 34.389c1.248-9.822 3.968-18.625 8.034-23.597C4.838 15.719 2.104 24.538.827 34.389m8.991-24.67C16.063 3.315 30.547.112 45.02.112c8.998 0 17.99 1.238 25 3.713l.023.094C63.025 1.47 54.004.246 44.983.246c-14.488 0-28.976 3.158-35.165 9.473"/><path fill="url(#a)" d="M6.16 77.088c-5.655-9.627-7.278-27.4-5.333-42.7 1.277-9.85 4.01-18.669 8.034-23.596.311-.38.63-.738.957-1.073C16.008 3.404 30.495.246 44.983.246c9.021 0 18.042 1.224 25.06 3.673 4.446 18.512-4.84 42.038-24.779 58.01-12.378 9.825-26.162 14.878-39.103 15.159"/><path fill="#323232" fill-opacity=".318" d="M24.725 65.627c0-3.07 2.605-5.583 5.79-5.583 3.184 0 5.789 2.512 5.789 5.583 0 3.07-2.605 5.582-5.79 5.582-3.184 0-5.789-2.233-5.789-5.582zm0-39.913h11.868v8.094l-2.026 23.166h-7.815l-2.027-23.166v-8.094zm27.173 39.861c0-3.1 2.556-5.635 5.68-5.635 3.124 0 5.68 2.536 5.68 5.635 0 3.098-2.556 5.634-5.68 5.634-3.124 0-5.68-2.254-5.68-5.634zm10.508-8.17h-9.94v-4.79c0-1.69.284-3.098.568-3.944.568-.845 1.42-1.972 2.84-3.662l4.544-4.507c.568-.846.852-1.69.852-3.1 0-1.126-.284-2.253-1.136-3.098-.568-.845-1.704-1.127-2.84-1.127s-1.988.563-2.84 1.408c-.852.846-1.135 2.254-1.42 3.944H42.527c.569-4.225 1.988-7.606 4.828-10.141 2.84-2.536 5.964-3.663 10.223-3.663 3.976 0 7.383 1.127 9.94 3.381 2.555 2.254 3.69 5.353 3.69 9.297 0 1.69-.283 3.099-.567 3.944-.568.845-.852 1.408-.852 1.69-.284.282-.568.845-1.136 1.69-.568.846-1.136 1.127-1.136 1.409a34281.32 34281.32 0 01-2.84 2.817c-.852.845-1.42 1.69-1.987 2.254 0 0-.284 1.127-.284 2.254v3.944z"/><path fill="#FFFFFE" d="M21.758 62.66c0-3.07 2.605-5.583 5.79-5.583 3.184 0 5.789 2.512 5.789 5.583 0 3.07-2.605 5.582-5.79 5.582-3.184 0-5.789-2.233-5.789-5.582zm0-39.913h11.868v8.094L31.6 54.007h-7.815l-2.027-23.166v-8.094zm27.173 39.86c0-3.099 2.556-5.634 5.68-5.634 3.124 0 5.68 2.535 5.68 5.634 0 3.1-2.556 5.635-5.68 5.635-3.124 0-5.68-2.254-5.68-5.635zm10.508-8.17h-9.94v-4.789c0-1.69.284-3.098.568-3.944.568-.845 1.42-1.972 2.84-3.662l4.544-4.507c.568-.846.852-1.69.852-3.1 0-1.126-.284-2.253-1.136-3.098-.568-.845-1.704-1.127-2.84-1.127s-1.988.563-2.84 1.408c-.852.846-1.136 2.254-1.42 3.944H39.56c.568-4.225 1.988-7.606 4.828-10.141 2.84-2.536 5.963-3.663 10.223-3.663 3.976 0 7.383 1.127 9.94 3.38 2.555 2.255 3.69 5.354 3.69 9.298 0 1.69-.283 3.099-.567 3.944-.568.845-.852 1.408-.852 1.69-.284.282-.568.845-1.136 1.69s-1.136 1.127-1.136 1.409l-2.84 2.817c-.852.845-1.42 1.69-1.987 2.254 0 0-.284 1.127-.284 2.254v3.944z"/></g></svg>