<svg xmlns="http://www.w3.org/2000/svg" xmlns:xlink="http://www.w3.org/1999/xlink" width="140" height="140"><defs><path id="a" d="M124.722 126.865c-21.451 17.513-88.43 17.513-109.444 0-21.45-17.514-19.262-92.385 0-112.088 19.263-19.703 90.182-19.703 109.444 0s21.45 94.574 0 112.088"/><path id="e" d="M70.32 5.415L65.472.678c-.909-.904-2.423-.904-3.392 0L22.79 37.533 9.13 23.115c-.908-.904-2.422-.904-3.39 0L.681 28.074a2.355 2.355 0 000 3.314l20.23 19.938c.546.543 1.273.723 2 .663.726.06 1.453-.12 1.998-.663L70.32 8.788c.907-.963.907-2.47 0-3.373z"/><linearGradient id="b" x1="0%" x2="102%" y1="0%" y2="101%"><stop offset="0%" stop-color="#16D25B"/><stop offset="100%" stop-color="#24C31F"/></linearGradient><filter id="d" width="247.9%" height="301.9%" x="-73.9%" y="-72.1%" filterUnits="objectBoundingBox"><feOffset dy="15" in="SourceAlpha" result="shadowOffsetOuter1"/><feGaussianBlur in="shadowOffsetOuter1" result="shadowBlurOuter1" stdDeviation="15"/><feColorMatrix in="shadowBlurOuter1" values="0 0 0 0 0.227184569 0 0 0 0 0.742506378 0 0 0 0 0.25414094 0 0 0 1 0"/></filter></defs><g fill="none" fill-rule="evenodd"><mask id="c" fill="#fff"><use xlink:href="#a"/></mask><use fill="#3FAE36" xlink:href="#a"/><path fill="url(#b)" d="M1.22 53.22c1.986-15.353 6.233-29.1 12.483-36.78.483-.593.979-1.15 1.486-1.672C24.803 4.922 47.31 0 69.816 0c14.014 0 28.028 1.908 38.93 5.725 6.907 28.856-7.517 65.528-38.493 90.425-19.229 15.314-40.643 23.19-60.746 23.628C.721 104.772-1.8 77.068 1.221 53.22z" mask="url(#c)"/><path fill="#2B2C30" d="M108.32 52.415l-4.847-4.737c-.909-.904-2.423-.904-3.392 0L60.79 84.533 47.13 70.115c-.908-.904-2.422-.904-3.39 0l-5.058 4.959a2.355 2.355 0 000 3.314l20.23 19.938c.546.543 1.273.723 2 .663.726.06 1.453-.12 1.998-.663l45.41-42.538c.907-.963.907-2.47 0-3.373z" opacity=".2"/><path fill="#E9ECF1" d="M107.32 51.415l-4.847-4.737c-.909-.904-2.423-.904-3.392 0L59.79 83.533 46.13 69.115c-.908-.904-2.422-.904-3.39 0l-5.058 4.959a2.355 2.355 0 000 3.314l20.23 19.938c.546.543 1.273.723 2 .663.726.06 1.453-.12 1.998-.663l45.41-42.538c.907-.963.907-2.47 0-3.373z"/><g transform="translate(35 44)"><use fill="#000" filter="url(#d)" xlink:href="#e"/><use fill="#FFF" xlink:href="#e"/></g></g></svg>