<svg xmlns="http://www.w3.org/2000/svg" xmlns:xlink="http://www.w3.org/1999/xlink" width="140" height="140"><defs><path id="a" d="M124.722 126.865c-21.451 17.513-88.43 17.513-109.444 0-21.45-17.514-19.262-92.385 0-112.088 19.263-19.703 90.182-19.703 109.444 0s21.45 94.574 0 112.088"/><path id="e" d="M47.85 21.336c-.076-.675-.863-1.182-1.543-1.182-2.2 0-4.15-1.29-4.97-3.289-.835-2.046-.296-4.43 1.342-5.934.517-.472.58-1.262.147-1.81a23.746 23.746 0 00-3.802-3.84 1.337 1.337 0 00-1.825.147c-1.43 1.585-4 2.173-5.986 1.345a5.33 5.33 0 01-3.241-5.21A1.332 1.332 0 0026.794.16a23.945 23.945 0 00-5.4-.014 1.335 1.335 0 00-1.188 1.373c.078 2.226-1.24 4.283-3.287 5.121-1.962.802-4.514.217-5.941-1.353a1.338 1.338 0 00-1.811-.152 23.853 23.853 0 00-3.883 3.839 1.335 1.335 0 00.143 1.823 5.318 5.318 0 011.342 5.989c-.828 1.973-2.877 3.244-5.222 3.244-.761-.024-1.303.487-1.386 1.179a24.035 24.035 0 00-.01 5.457c.075.678.885 1.181 1.573 1.181 2.09-.053 4.096 1.24 4.939 3.289.839 2.046.299 4.43-1.342 5.935a1.332 1.332 0 00-.146 1.808 23.821 23.821 0 003.796 3.842c.55.442 1.35.38 1.827-.145 1.437-1.588 4.006-2.176 5.983-1.346a5.323 5.323 0 013.248 5.209 1.332 1.332 0 001.177 1.402 23.779 23.779 0 005.4.015 1.336 1.336 0 001.188-1.374c-.08-2.225 1.241-4.282 3.284-5.119 1.976-.806 4.516-.216 5.944 1.352a1.34 1.34 0 001.811.152 23.913 23.913 0 003.883-3.839c.443-.55.38-1.35-.143-1.824a5.317 5.317 0 01-1.345-5.987c.816-1.946 2.788-3.254 4.91-3.254l.296.008c.69.056 1.323-.474 1.405-1.177a23.89 23.89 0 00.01-5.458zM24.038 32.058c-4.415 0-8.005-3.592-8.005-8.006s3.59-8.006 8.005-8.006c4.415 0 8.006 3.592 8.006 8.006s-3.59 8.006-8.006 8.006z"/><linearGradient id="b" x1="0%" y1="0%" y2="100%"><stop offset="0%" stop-color="#FFC65F"/><stop offset="100%" stop-color="#F88C3D"/></linearGradient><filter id="d" width="318.7%" height="318.7%" x="-109.4%" y="-78.1%" filterUnits="objectBoundingBox"><feOffset dy="15" in="SourceAlpha" result="shadowOffsetOuter1"/><feGaussianBlur in="shadowOffsetOuter1" result="shadowBlurOuter1" stdDeviation="15"/><feColorMatrix in="shadowBlurOuter1" values="0 0 0 0 1 0 0 0 0 0.367017663 0 0 0 0 0 0 0 0 1 0"/></filter></defs><g fill="none" fill-rule="evenodd"><mask id="c" fill="#fff"><use xlink:href="#a"/></mask><use fill="#F38A21" xlink:href="#a"/><path fill="url(#b)" d="M1.22 53.22c1.986-15.353 6.233-29.1 12.483-36.78.483-.593.979-1.15 1.486-1.672C24.803 4.922 47.31 0 69.816 0c14.014 0 28.028 1.908 38.93 5.725 6.907 28.856-7.517 65.528-38.493 90.425-19.229 15.314-40.643 23.19-60.746 23.628C.721 104.772-1.8 77.068 1.221 53.22z" mask="url(#c)"/><path fill="#2B2C30" d="M96.85 70.336c-.076-.675-.863-1.182-1.543-1.182-2.2 0-4.15-1.29-4.97-3.289-.835-2.046-.296-4.43 1.342-5.934.517-.472.58-1.262.147-1.81a23.746 23.746 0 00-3.802-3.84 1.337 1.337 0 00-1.825.147c-1.43 1.585-4 2.173-5.986 1.345a5.33 5.33 0 01-3.241-5.21 1.332 1.332 0 00-1.178-1.403 23.945 23.945 0 00-5.4-.014 1.335 1.335 0 00-1.188 1.373c.078 2.226-1.24 4.283-3.287 5.121-1.962.802-4.514.217-5.941-1.353a1.338 1.338 0 00-1.811-.152 23.853 23.853 0 00-3.883 3.839 1.335 1.335 0 00.143 1.823 5.318 5.318 0 011.342 5.989c-.828 1.973-2.877 3.244-5.222 3.244-.761-.024-1.303.487-1.386 1.179a24.035 24.035 0 00-.01 5.457c.075.678.885 1.181 1.573 1.181 2.09-.053 4.096 1.24 4.939 3.289.839 2.046.299 4.43-1.342 5.935a1.332 1.332 0 00-.146 1.808 23.821 23.821 0 003.796 3.842c.55.442 1.35.38 1.827-.145 1.437-1.588 4.006-2.176 5.983-1.346a5.323 5.323 0 013.248 5.209 1.332 1.332 0 001.177 1.402 23.779 23.779 0 005.4.015 1.336 1.336 0 001.188-1.374c-.08-2.225 1.241-4.282 3.284-5.119 1.976-.806 4.516-.216 5.944 1.352a1.34 1.34 0 001.811.152 23.913 23.913 0 003.883-3.839c.443-.55.38-1.35-.143-1.824a5.317 5.317 0 01-1.345-5.987c.816-1.946 2.788-3.254 4.91-3.254l.296.008c.69.056 1.323-.474 1.405-1.177a23.89 23.89 0 00.01-5.458zM73.038 81.058c-4.415 0-8.005-3.592-8.005-8.006s3.59-8.006 8.005-8.006c4.415 0 8.006 3.592 8.006 8.006s-3.59 8.006-8.006 8.006z" opacity=".2"/><path fill="#E9ECF1" d="M95.85 69.336c-.076-.675-.863-1.182-1.543-1.182-2.2 0-4.15-1.29-4.97-3.289-.835-2.046-.296-4.43 1.342-5.934.517-.472.58-1.262.147-1.81a23.746 23.746 0 00-3.802-3.84 1.337 1.337 0 00-1.825.147c-1.43 1.585-4 2.173-5.986 1.345a5.33 5.33 0 01-3.241-5.21 1.332 1.332 0 00-1.178-1.403 23.945 23.945 0 00-5.4-.014 1.335 1.335 0 00-1.188 1.373c.078 2.226-1.24 4.283-3.287 5.121-1.962.802-4.514.217-5.941-1.353a1.338 1.338 0 00-1.811-.152 23.853 23.853 0 00-3.883 3.839 1.335 1.335 0 00.143 1.823 5.318 5.318 0 011.342 5.989c-.828 1.973-2.877 3.244-5.222 3.244-.761-.024-1.303.487-1.386 1.179a24.035 24.035 0 00-.01 5.457c.075.678.885 1.181 1.573 1.181 2.09-.053 4.096 1.24 4.939 3.289.839 2.046.299 4.43-1.342 5.935a1.332 1.332 0 00-.146 1.808 23.821 23.821 0 003.796 3.842c.55.442 1.35.38 1.827-.145 1.437-1.588 4.006-2.176 5.983-1.346a5.323 5.323 0 013.248 5.209 1.332 1.332 0 001.177 1.402 23.779 23.779 0 005.4.015 1.336 1.336 0 001.188-1.374c-.08-2.225 1.241-4.282 3.284-5.119 1.976-.806 4.516-.216 5.944 1.352a1.34 1.34 0 001.811.152 23.913 23.913 0 003.883-3.839c.443-.55.38-1.35-.143-1.824a5.317 5.317 0 01-1.345-5.987c.816-1.946 2.788-3.254 4.91-3.254l.296.008c.69.056 1.323-.474 1.405-1.177a23.89 23.89 0 00.01-5.458zM72.038 80.058c-4.415 0-8.005-3.592-8.005-8.006s3.59-8.006 8.005-8.006c4.415 0 8.006 3.592 8.006 8.006s-3.59 8.006-8.006 8.006z"/><g transform="translate(46 46)"><use fill="#000" filter="url(#d)" xlink:href="#e"/><use fill="#FFF" xlink:href="#e"/></g></g></svg>