<svg xmlns="http://www.w3.org/2000/svg" width="90" height="90"><defs><linearGradient id="a" x1="100%" x2="0%" y1="100%" y2="0%"><stop offset="0%" stop-color="#63C7FD"/><stop offset="100%" stop-color="#2B8AEB"/></linearGradient></defs><g fill="none" fill-rule="evenodd"><path fill="#4396ED" d="M80.148 81.333c-13.785 11.228-56.827 11.228-70.33 0-13.785-11.228-12.378-59.228 0-71.86 12.378-12.63 57.952-12.63 70.33 0 12.378 12.632 13.784 60.632 0 71.86"/><path fill="#FFFFFE" d="M.827 34.389c1.248-9.822 3.968-18.625 8.034-23.597C4.838 15.719 2.104 24.538.827 34.389m8.991-24.67C16.063 3.315 30.547.112 45.02.112c8.998 0 17.99 1.238 25 3.713l.023.094C63.025 1.47 54.004.246 44.983.246c-14.488 0-28.976 3.158-35.165 9.473"/><path fill="url(#a)" d="M6.16 77.088c-5.655-9.627-7.278-27.4-5.333-42.7 1.277-9.85 4.01-18.669 8.034-23.596.311-.38.63-.738.957-1.073C16.008 3.404 30.495.246 44.983.246c9.021 0 18.042 1.224 25.06 3.673 4.446 18.512-4.84 42.038-24.779 58.01-12.378 9.825-26.162 14.878-39.103 15.159"/><path fill="#323232" fill-opacity=".318" d="M13.636 38.607h7.266l5.236 15.873 5.237-15.873h6.97L29.476 61.55h-7.069l-8.77-22.942zm40.533 6.071c-.993-.556-1.958-.834-2.896-.834-1.026 0-1.953.261-2.782.785-.83.524-1.484 1.25-1.964 2.176-.48.928-.72 1.97-.72 3.126s.24 2.198.72 3.125c.48.928 1.135 1.659 1.964 2.193.829.535 1.756.802 2.782.802.872 0 1.805-.24 2.798-.72a9.126 9.126 0 002.667-1.964l3.927 4.19c-1.243 1.352-2.743 2.432-4.5 3.24-1.756.807-3.496 1.21-5.22 1.21-2.29 0-4.358-.518-6.201-1.554a11.258 11.258 0 01-4.337-4.304c-1.047-1.833-1.57-3.884-1.57-6.153 0-2.225.534-4.238 1.603-6.038 1.07-1.8 2.542-3.213 4.418-4.238 1.877-1.025 3.982-1.538 6.317-1.538 1.723 0 3.447.37 5.17 1.113 1.724.741 3.164 1.734 4.32 2.978l-3.927 4.68a8.214 8.214 0 00-2.569-2.275zm8.558-6.07H81.48v5.236H69.535v3.6h10.832v5.236H69.535v3.633h12.272v5.236h-19.08V38.607z"/><path fill="#FFF" d="M10.91 35.88h7.265l5.236 15.873 5.236-15.873h6.971L26.75 58.822h-7.07L10.91 35.88zm40.532 6.07c-.993-.555-1.958-.834-2.897-.834-1.025 0-1.952.262-2.781.786-.83.523-1.484 1.249-1.964 2.176s-.72 1.97-.72 3.126.24 2.198.72 3.125 1.135 1.658 1.964 2.193a5.027 5.027 0 002.781.802c.873 0 1.806-.24 2.799-.72a9.126 9.126 0 002.667-1.964l3.927 4.19c-1.243 1.352-2.743 2.432-4.5 3.24-1.756.806-3.496 1.21-5.22 1.21-2.29 0-4.358-.518-6.202-1.555a11.258 11.258 0 01-4.336-4.303c-1.047-1.833-1.57-3.884-1.57-6.153 0-2.225.534-4.238 1.603-6.038 1.069-1.8 2.542-3.213 4.418-4.238 1.876-1.026 3.982-1.538 6.316-1.538 1.724 0 3.448.37 5.171 1.112 1.724.742 3.164 1.735 4.32 2.978l-3.927 4.68a8.214 8.214 0 00-2.57-2.274zM60 35.88h18.753v5.236H66.807v3.6H77.64v5.237H66.807v3.632H79.08v5.237H60V35.88z"/></g></svg>